name Run_300 02_newCOP3_v24.mot
datacolumns 19
datarows 128
range 1.475 1.607292
DataType=double
version=3
OpenSimVersion=4.3-2021-08-27-4bc7ad9
endheader
time	R_ground_force_vx	R_ground_force_vy	R_ground_force_vz	R_ground_force_px	R_ground_force_py	R_ground_force_pz	L_ground_force_vx	L_ground_force_vy	L_ground_force_vz	L_ground_force_px	L_ground_force_py	L_ground_force_pz	R_ground_torque_x	R_ground_torque_y	R_ground_torque_z	L_ground_torque_x	L_ground_torque_y	L_ground_torque_z
1.475	0	0	0	0	0	0	0	0	0	0	0	0	0	0	0	0	0	0
1.476042	0	0	0	0	0	0	0	0	0	0	0	0	0	0	0	0	0	0
1.477083	0	0	0	0	0	0	0	0	0	0	0	0	0	0	0	0	0	0
1.478125	0	0	0	0	0	0	0	0	0	0	0	0	0	0	0	0	0	0
1.479167	0	0	0	0	0	0	0	0	0	0	0	0	0	0	0	0	0	0
1.480208	0	0	0	0	0	0	0	0	0	0	0	0	0	0	0	0	0	0
1.48125	0	0	0	0	0	0	0	0	0	0	0	0	0	0	0	0	0	0
1.482292	0	0	0	0	0	0	0	0	0	0	0	0	0	0	0	0	0	0
1.483333	0	0	0	0	0	0	0	0	0	0	0	0	0	0	0	0	0	0
1.484375	0	0	0	0	0	0	0	0	0	0	0	0	0	0	0	0	0	0
1.485417	0	0	0	0	0	0	0	0	0	0	0	0	0	0	0	0	0	0
1.486458	0	0	0	0	0	0	0	0	0	0	0	0	0	0	0	0	0	0
1.4875	0	0	0	0	0	0	0	0	0	0	0	0	0	0	0	0	0	0
1.488542	0	0	0	0	0	0	0	0	0	0	0	0	0	0	0	0	0	0
1.489583	0	0	0	0	0	0	0	0	0	0	0	0	0	0	0	0	0	0
1.490625	0	0	0	0	0	0	0	0	0	0	0	0	0	0	0	0	0	0
1.491667	0	0	0	0	0	0	0	0	0	0	0	0	0	0	0	0	0	0
1.492708	0	0	0	0	0	0	0	0	0	0	0	0	0	0	0	0	0	0
1.49375	0	0	0	0	0	0	0	0	0	0	0	0	0	0	0	0	0	0
1.494792	0	0	0	0	0	0	0	0	0	0	0	0	0	0	0	0	0	0
1.495833	0	0	0	0	0	0	0	0	0	0	0	0	0	0	0	0	0	0
1.496875	0	0	0	0	0	0	0	0	0	0	0	0	0	0	0	0	0	0
1.497917	0	0	0	0	0	0	0	0	0	0	0	0	0	0	0	0	0	0
1.498958	0	0	0	0	0	0	0	0	0	0	0	0	0	0	0	0	0	0
1.5	0	0	0	0	0	0	0	0	0	0	0	0	0	0	0	0	0	0
1.501042	0	0	0	0	0	0	0	0	0	0	0	0	0	0	0	0	0	0
1.502083	0	0	0	0	0	0	-3.119418	10.418232	-0.33463	0.919177	0	-0.251884	0	0	0	0	-0.723222	0
1.503125	0	0	0	0	0	0	-3.567088	11.735826	-0.5227850000000001	0.92845	0	-0.263273	0	0	0	0	-0.695624	0
1.504167	0	0	0	0	0	0	-4.067725	13.262935	-0.716508	0.937191	0	-0.273702	0	0	0	0	-0.66593	0
1.505208	0	0	0	0	0	0	-4.62454	15.026883	-0.915471	0.945427	0	-0.28319	0	0	0	0	-0.634185	0
1.50625	0	0	0	0	0	0	-5.240308	17.057995	-1.119251	0.953186	0	-0.291773	0	0	0	0	-0.600433	0
1.507292	0	0	0	0	0	0	-5.917184	19.389799	-1.32731	0.960495	0	-0.299497	0	0	0	0	-0.564714	0
1.508333	0	0	0	0	0	0	-6.656514	22.059221	-1.53898	0.967379	0	-0.306414	0	0	0	0	-0.527069	0
1.509375	0	0	0	0	0	0	-7.458653	25.106756	-1.753449	0.9738599999999999	0	-0.31258	0	0	0	0	-0.487534	0
1.510417	0	0	0	0	0	0	-8.322789999999999	28.576586	-1.969743	0.979956	0	-0.318049	0	0	0	0	-0.446142	0
1.511458	0	0	0	0	0	0	-9.246801	32.516666	-2.186718	0.9856780000000001	0	-0.322874	0	0	0	0	-0.402924	0
1.5125	0	0	0	0	0	0	-10.227129	36.978733	-2.403049	0.991038	0	-0.327109	0	0	0	0	-0.357907	0
1.513542	0	0	0	0	0	0	-11.258704	42.018242	-2.617226	0.996043	0	-0.330801	0	0	0	0	-0.311116	0
1.514583	0	0	0	0	0	0	-12.334906	47.694202	-2.827558	1.000698	0	-0.333999	0	0	0	0	-0.262572	0
1.515625	0	0	0	0	0	0	-13.447583	54.06889	-3.032174	1.005007	0	-0.336746	0	0	0	0	-0.21229	0
1.516667	0	0	0	0	0	0	-14.587127	61.207466	-3.229034	1.008975	0	-0.339083	0	0	0	0	-0.160287	0
1.517708	0	0	0	0	0	0	-15.742599	69.177406	-3.415949	1.012606	0	-0.341051	0	0	0	0	-0.106573	0
1.51875	0	0	0	0	0	0	-16.90192	78.047813	-3.590601	1.015906	0	-0.342687	0	0	0	0	-0.051156	0
1.519792	0	0	0	0	0	0	-18.05212	87.888542	-3.750574	1.01888	0	-0.344023	0	0	0	-0	0.005957	-0
1.520833	0	0	0	0	0	0	-19.17963	98.76913500000001	-3.893389	1.021536	0	-0.345093	0	0	0	-0	0.064763	-0
1.521875	0	0	0	0	0	0	-20.270622	110.757591	-4.016546	1.023883	0	-0.345926	0	0	0	-0	0.125257	-0
1.522917	0	0	0	0	0	0	-21.311384	123.918907	-4.117573	1.025932	0	-0.346549	0	0	0	-0	0.18744	-0
1.523958	0	0	0	0	0	0	-22.288727	138.313461	-4.194081	1.027694	0	-0.346987	0	0	0	-0	0.251309	-0
1.525	0	0	0	0	0	0	-23.190382	153.995209	-4.24382	1.029183	0	-0.347264	0	0	0	-0	0.316863	-0
1.526042	0	0	0	0	0	0	-24.005421	171.009674	-4.264744	1.030412	0	-0.3474	0	0	0	-0	0.384099	-0
1.527083	0	0	0	0	0	0	-24.724649	189.391876	-4.25508	1.031395	0	-0.347413	0	0	0	-0	0.453012	-0
1.528125	0	0	0	0	0	0	-25.340973	209.164139	-4.213394	1.032149	0	-0.34732	0	0	0	-0	0.523595	-0
1.529167	0	0	0	0	0	0	-25.84973	230.333878	-4.138665	1.03269	0	-0.347137	0	0	0	-0	0.595834	-0
1.530208	0	0	0	0	0	0	-26.248964	252.891418	-4.030353	1.033032	0	-0.346877	0	0	0	-0	0.669714	-0
1.53125	0	0	0	0	0	0	-26.53966	276.808014	-3.888468	1.033191	0	-0.346552	0	0	0	-0	0.745212	-0
1.532292	0	0	0	0	0	0	-26.725883	302.033997	-3.713639	1.033184	0	-0.346173	0	0	0	-0	0.8222969999999999	-0
1.533333	0	0	0	0	0	0	-26.814873	328.497437	-3.507165	1.033024	0	-0.345749	0	0	0	-0	0.900931	-0
1.534375	0	0	0	0	0	0	-26.817034	356.103119	-3.271075	1.032726	0	-0.345288	0	0	0	-0	0.981066	-0
1.535417	0	0	0	0	0	0	-26.745871	384.732086	-3.008162	1.032303	0	-0.344798	0	0	0	-0	1.062643	-0
1.536458	0	0	0	0	0	0	-26.617819	414.242004	-2.722015	1.031768	0	-0.344285	0	0	0	-0	1.145591	-0
1.5375	0	0	0	0	0	0	-26.452003	444.468048	-2.417033	1.031134	0	-0.343755	0	0	0	-0	1.229825	-0
1.538542	0	0	0	0	0	0	-26.269899	475.224854	-2.098417	1.03041	0	-0.343214	0	0	0	-0	1.315248	-0
1.539583	0	0	0	0	0	0	-26.094936	506.30896	-1.77215	1.029608	0	-0.342666	0	0	0	-0	1.401744	-0
1.540625	0	0	0	0	0	0	-25.951998	537.5023190000001	-1.444949	1.028738	0	-0.342114	0	0	0	-0	1.489184	-0
1.541667	0	0	0	0	0	0	-25.866873	568.576355	-1.124196	1.02781	0	-0.341564	0	0	0	-0	1.57742	-0
1.542708	0	0	0	0	0	0	-25.865654	599.296753	-0.817844	1.026831	0	-0.341019	0	0	0	-0	1.666286	-0
1.54375	0	0	0	0	0	0	-25.974085	629.4288330000001	-0.5343	1.02581	0	-0.340482	0	0	0	-0	1.755595	-0
1.544792	0	0	0	0	0	0	-26.216908	658.742676	-0.282275	1.024757	0	-0.339957	0	0	0	-0	1.845145	-0
1.545833	0	0	0	0	0	0	-26.617201	687.019043	-0.070621	1.023678	0	-0.339448	0	0	0	-0	1.934712	-0
1.546875	0	0	0	0	0	0	-27.195774	714.054626	0.091866	1.022581	0	-0.338958	0	0	0	-0	2.02405	-0
1.547917	0	0	0	0	0	0	-27.970612	739.667114	0.196656	1.021473	0	-0.33849	0	0	0	-0	2.112898	-0
1.548958	0	0	0	0	0	0	-28.956406	763.6997679999999	0.235715	1.020361	0	-0.338048	0	0	0	-0	2.200973	-0
1.55	0	0	0	0	0	0	-30.164221	786.024658	0.201743	1.019251	0	-0.337637	0	0	0	-0	2.287972	-0
1.551042	0	0	0	0	0	0	-31.601278	806.546143	0.088424	1.018148	0	-0.337261	0	0	0	-0	2.373578	-0
1.552083	0	0	0	0	0	0	-33.270889	825.2018430000001	-0.109329	1.017056	0	-0.336923	0	0	0	-0	2.457455	-0
1.553125	0	0	0	0	0	0	-35.172558	841.963928	-0.395133	1.015979	0	-0.336628	0	0	0	-0	2.539253	-0
1.554167	0	0	0	0	0	0	-37.302212	856.83844	-0.770915	1.014919	0	-0.33638	0	0	0	-0	2.618609	-0
1.555208	0	0	0	0	0	0	-39.652576	869.864075	-1.236703	1.013878	0	-0.336184	0	0	0	-0	2.695149	-0
1.55625	0	0	0	0	0	0	-42.213676	881.109863	-1.790459	1.012855	0	-0.336044	0	0	0	-0	2.768491	-0
1.557292	0	0	0	0	0	0	-44.973392	890.672363	-2.427944	1.011849	0	-0.335964	0	0	0	-0	2.838247	-0
1.558333	0	0	0	0	0	0	-47.918095	898.671997	-3.142627	1.010856	0	-0.335946	0	0	0	-0	2.904025	-0
1.559375	0	0	0	0	0	0	-51.033279	905.249084	-3.925649	1.009874	0	-0.335995	0	0	0	-0	2.965438	-0
1.560417	0	0	0	0	0	0	-54.304161	910.559814	-4.765841	1.008896	0	-0.336111	0	0	0	-0	3.022098	-0
1.561458	0	0	0	0	0	0	-57.716217	914.77179	-5.649798	1.007917	0	-0.336295	0	0	0	-0	3.073628	-0
1.5625	0	0	0	0	0	0	-61.255623	918.059692	-6.562021	1.006932	0	-0.336547	0	0	0	-0	3.119664	-0
1.563542	0	0	0	0	0	0	-64.909538	920.601624	-7.485115	1.005934	0	-0.336866	0	0	0	-0	3.159853	-0
1.564583	0	0	0	0	0	0	-68.666252	922.575012	-8.40005	1.004918	0	-0.337247	0	0	0	-0	3.193867	-0
1.565625	0	0	0	0	0	0	-72.515182	924.153381	-9.286479999999999	1.003878	0	-0.337687	0	0	0	-0	3.221399	-0
1.566667	0	0	0	0	0	0	-76.446663	925.503479	-10.123108	1.00281	0	-0.338179	0	0	0	-0	3.242169	-0
1.567708	0	0	0	0	0	0	-80.451645	926.7825319999999	-10.888104	1.001712	0	-0.338714	0	0	0	-0	3.255931	-0
1.56875	0	0	0	0	0	0	-84.52124000000001	928.1365970000001	-11.559552	1.000581	0	-0.339285	0	0	0	-0	3.262471	-0
1.569792	0	0	0	0	0	0	-88.646179	929.698792	-12.115924	0.999418	0	-0.33988	0	0	0	-0	3.261617	-0
1.570833	0	0	0	0	0	0	-92.81630699999999	931.588318	-12.53657	0.998223	0	-0.340488	0	0	0	-0	3.253235	-0
1.571875	0	0	0	0	0	0	-97.02001199999999	933.909912	-12.802211	0.996997	0	-0.341098	0	0	0	-0	3.237238	-0
1.572917	0	0	0	0	0	0	-101.243774	936.75354	-12.89542	0.995745	0	-0.341696	0	0	0	-0	3.213584	-0
1.573958	0	0	0	0	0	0	-105.47184	940.194397	-12.801077	0.994468	0	-0.342272	0	0	0	-0	3.182279	-0
1.575	0	0	0	0	0	0	-109.686058	944.2937010000001	-12.506797	0.99317	0	-0.342813	0	0	0	-0	3.143381	-0
1.576042	0	0	0	0	0	0	-113.86586	949.098755	-12.003295	0.991854	0	-0.343309	0	0	0	-0	3.096995	-0
1.577083	0	0	0	0	0	0	-117.988495	954.644104	-11.284711	0.990522	0	-0.343752	0	0	0	-0	3.043279	-0
1.578125	0	0	0	0	0	0	-122.029411	960.951904	-10.348846	0.989175	0	-0.344133	0	0	0	-0	2.98244	-0
1.579167	0	0	0	0	0	0	-125.962807	968.033325	-9.197336999999999	0.987814	0	-0.344448	0	0	0	-0	2.914733	-0
1.580208	0	0	0	0	0	0	-129.762314	975.888794	-7.835733	0.986437	0	-0.344691	0	0	0	-0	2.840462	-0
1.58125	0	0	0	0	0	0	-133.401749	984.509033	-6.273494	0.985043	0	-0.344862	0	0	0	-0	2.759974	-0
1.582292	0	0	0	0	0	0	-136.855865	993.8756100000001	-4.523893	0.983627	0	-0.344962	0	0	0	-0	2.67366	-0
1.583333	0	0	0	0	0	0	-140.101105	1003.961853	-2.603832	0.982186	0	-0.344993	0	0	0	-0	2.581948	-0
1.584375	0	0	0	0	0	0	-143.116241	1014.733154	-0.533561	0.980715	0	-0.34496	0	0	0	-0	2.485301	-0
1.585417	0	0	0	0	0	0	-145.882874	1026.147827	1.663675	0.979208	0	-0.344869	0	0	0	-0	2.384211	-0
1.586458	0	0	0	0	0	0	-148.385757	1038.157593	3.962073	0.977662	0	-0.344728	0	0	0	-0	2.279197	-0
1.5875	0	0	0	0	0	0	-150.613068	1050.708374	6.333771	0.976071	0	-0.344546	0	0	0	-0	2.170799	-0
1.588542	0	0	0	0	0	0	-152.556274	1063.741089	8.749404	0.974431	0	-0.344333	0	0	0	-0	2.059569	-0
1.589583	0	0	0	0	0	0	-154.210052	1077.192139	11.178703	0.97274	0	-0.344098	0	0	0	-0	1.946069	-0
1.590625	0	0	0	0	0	0	-155.572021	1090.995117	13.591122	0.970994	0	-0.343852	0	0	0	-0	1.830867	-0
1.591667	0	0	0	0	0	0	-156.642242	1105.081299	15.956471	0.969193	0	-0.343605	0	0	0	-0	1.714525	-0
1.592708	0	0	0	0	0	0	-157.422897	1119.380737	18.245564	0.967337	0	-0.343367	0	0	0	-0	1.5976	-0
1.59375	0	0	0	0	0	0	-157.91774	1133.823853	20.430822	0.965426	0	-0.343145	0	0	0	-0	1.480634	-0
1.594792	0	0	0	0	0	0	-158.13176	1148.342163	22.486874	0.963463	0	-0.342948	0	0	0	-0	1.364153	-0
1.595833	0	0	0	0	0	0	-158.070831	1162.869751	24.391085	0.961449	0	-0.342781	0	0	0	-0	1.248658	-0
1.596875	0	0	0	0	0	0	-157.741425	1177.344116	26.124031	0.959387	0	-0.342651	0	0	0	-0	1.134622	-0
1.597917	0	0	0	0	0	0	-157.150589	1191.707397	27.66991	0.957282	0	-0.342562	0	0	0	-0	1.022488	-0
1.598958	0	0	0	0	0	0	-156.305908	1205.906982	29.016857	0.955136	0	-0.342515	0	0	0	-0	0.912662	-0
1.6	0	0	0	0	0	0	-155.215652	1219.89624	30.157167	0.952955	0	-0.342513	0	0	0	-0	0.805515	-0
1.601042	0	0	0	0	0	0	-153.889038	1233.635132	31.087442	0.950742	0	-0.342555	0	0	0	-0	0.701373	-0
1.602083	0	0	0	0	0	0	-152.336533	1247.090454	31.808615	0.948501	0	-0.342641	0	0	0	-0	0.600525	-0
1.603125	0	0	0	0	0	0	-150.57016	1260.235962	32.32589	0.9462390000000001	0	-0.342769	0	0	0	-0	0.503213	-0
1.604167	0	0	0	0	0	0	-148.603851	1273.052124	32.648563	0.943958	0	-0.342936	0	0	0	-0	0.409639	-0
1.605208	0	0	0	0	0	0	-146.453674	1285.526245	32.789791	0.9416639999999999	0	-0.343139	0	0	0	-0	0.319959	-0
1.60625	0	0	0	0	0	0	-144.137985	1297.651611	32.766224	0.939361	0	-0.343373	0	0	0	-0	0.234289	-0
1.607292	0	0	0	0	0	0	-141.677444	1309.427002	32.597588	0.9370540000000001	0	-0.343634	0	0	0	-0	0.152701	-0
